<svg width="76" height="76" viewBox="0 0 76 76" fill="none" xmlns="http://www.w3.org/2000/svg">
<path d="M71.432 32.0046C71.1211 31.9542 70.8063 31.9309 70.4915 31.935H16.875L18.0441 31.3912C19.1868 30.8503 20.2265 30.1142 21.1164 29.2161L36.1518 14.1807C38.132 12.2904 38.4647 9.24947 36.9403 6.97564C35.1661 4.55261 31.7635 4.0265 29.3403 5.80074C29.1446 5.94416 28.9585 6.1005 28.7837 6.26873L1.59484 33.4575C-0.529969 35.58 -0.531838 39.0229 1.59059 41.1477C1.59195 41.1491 1.59348 41.1506 1.59484 41.152L28.7837 68.3408C30.9102 70.4613 34.3531 70.4566 36.4738 68.3301C36.6407 68.1627 36.7965 67.9846 36.9403 67.797C38.4647 65.5232 38.132 62.4823 36.1518 60.592L21.1436 45.5294C20.3458 44.7307 19.4285 44.061 18.4247 43.5446L16.7934 42.8105H70.1922C72.9701 42.9136 75.4072 40.9732 75.9291 38.2428C76.4098 35.2783 74.3965 32.4855 71.432 32.0046Z" fill="#8E95A2"/>
</svg>
