<svg width="22" height="22" viewBox="0 0 22 22" fill="none" xmlns="http://www.w3.org/2000/svg">
<path fill-rule="evenodd" clip-rule="evenodd" d="M21.0833 2.75H18.6423C18.2444 1.42909 17.0317 0.458344 15.5833 0.458344C14.135 0.458344 12.9222 1.42909 12.5244 2.75H0.916652C0.410652 2.75 0 3.16065 0 3.66665C0 4.17265 0.410652 4.5833 0.916652 4.5833H12.5244C12.9222 5.90425 14.135 6.875 15.5833 6.875C17.0317 6.875 18.2444 5.90425 18.6423 4.58334H21.0833C21.5903 4.58334 22 4.17269 22 3.66669C22 3.16069 21.5903 2.75 21.0833 2.75ZM15.5833 5.04165C14.8252 5.04165 14.2083 4.42475 14.2083 3.66665C14.2083 2.90855 14.8252 2.29165 15.5833 2.29165C16.3414 2.29165 16.9583 2.90855 16.9583 3.66665C16.9583 4.42475 16.3414 5.04165 15.5833 5.04165ZM21.0833 17.4167H18.6423C18.2453 16.0958 17.0317 15.125 15.5833 15.125C14.135 15.125 12.9222 16.0958 12.5244 17.4167H0.916652C0.410652 17.4167 0 17.8273 0 18.3333C0 18.8393 0.410652 19.25 0.916652 19.25H12.5244C12.9213 20.5709 14.135 21.5417 15.5833 21.5417C17.0316 21.5417 18.2444 20.5709 18.6422 19.25H21.0833C21.5902 19.25 22 18.8393 22 18.3333C22 17.8273 21.5903 17.4167 21.0833 17.4167ZM15.5833 19.7083C14.8252 19.7083 14.2083 19.0914 14.2083 18.3333C14.2083 17.5753 14.8252 16.9583 15.5833 16.9583C16.3414 16.9583 16.9583 17.5753 16.9583 18.3333C16.9583 19.0914 16.3414 19.7083 15.5833 19.7083ZM9.4756 10.0834H21.0833C21.5903 10.0834 22 10.494 22 11C22 11.506 21.5902 11.9167 21.0833 11.9167H9.47555C9.07775 13.2376 7.86496 14.2083 6.41665 14.2083C4.96835 14.2083 3.7556 13.2376 3.35775 11.9167H0.916652C0.410652 11.9167 0 11.506 0 11C0 10.494 0.410652 10.0834 0.916652 10.0834H3.35779C3.7556 8.76245 4.96839 7.79169 6.4167 7.79169C7.865 7.79169 9.07775 8.76245 9.4756 10.0834ZM5.04165 11C5.04165 11.7581 5.65855 12.375 6.41665 12.375C7.17475 12.375 7.79165 11.7581 7.79165 11C7.79165 10.2419 7.17475 9.625 6.41665 9.625C5.65855 9.625 5.04165 10.2419 5.04165 11Z" fill="#3F4B62"/>
</svg>
